<svg width="20" height="21" viewBox="0 0 20 21" fill="none" xmlns="http://www.w3.org/2000/svg">
<g opacity="1">
<path d="M10.0999 11.15C10.0416 11.1417 9.9666 11.1417 9.89994 11.15C8.43327 11.1 7.2666 9.9 7.2666 8.425C7.2666 6.91667 8.48327 5.69167 9.99993 5.69167C11.5083 5.69167 12.7333 6.91667 12.7333 8.425C12.7249 9.9 11.5666 11.1 10.0999 11.15Z" stroke="white" stroke-width="1.5" stroke-linecap="round" stroke-linejoin="round"/>
<path d="M15.6166 16.65C14.1333 18.0083 12.1666 18.8333 9.99997 18.8333C7.8333 18.8333 5.86663 18.0083 4.3833 16.65C4.46663 15.8667 4.96663 15.1 5.8583 14.5C8.14163 12.9833 11.875 12.9833 14.1416 14.5C15.0333 15.1 15.5333 15.8667 15.6166 16.65Z" stroke="white" stroke-width="1.5" stroke-linecap="round" stroke-linejoin="round"/>
<path d="M10.0001 18.8333C14.6025 18.8333 18.3334 15.1024 18.3334 10.5C18.3334 5.89763 14.6025 2.16667 10.0001 2.16667C5.39771 2.16667 1.66675 5.89763 1.66675 10.5C1.66675 15.1024 5.39771 18.8333 10.0001 18.8333Z" stroke="white" stroke-width="1.5" stroke-linecap="round" stroke-linejoin="round"/>
</g>
</svg>
