<svg width="20" height="21" viewBox="0 0 20 21" fill="none" xmlns="http://www.w3.org/2000/svg">
<path d="M16.8416 7.10463L10.4249 10.8213C10.1666 10.9713 9.8416 10.9713 9.57494 10.8213L3.15827 7.10463C2.69993 6.83796 2.58327 6.21296 2.93327 5.8213C3.17493 5.5463 3.44993 5.3213 3.7416 5.16296L8.25827 2.66296C9.22494 2.1213 10.7916 2.1213 11.7583 2.66296L16.2749 5.16296C16.5666 5.3213 16.8416 5.55463 17.0833 5.8213C17.4166 6.21296 17.2999 6.83796 16.8416 7.10463Z" fill="white"/>
<path d="M9.52507 12.3713V18.0546C9.52507 18.6879 8.8834 19.1046 8.31673 18.8296C6.60006 17.9879 3.7084 16.4129 3.7084 16.4129C2.69173 15.8379 1.8584 14.3879 1.8584 13.1963V8.89627C1.8584 8.23793 2.55007 7.82127 3.11673 8.14627L9.1084 11.6213C9.3584 11.7796 9.52507 12.0629 9.52507 12.3713Z" fill="white"/>
<path d="M10.4751 12.3713V18.0546C10.4751 18.6879 11.1168 19.1046 11.6834 18.8296C13.4001 17.9879 16.2918 16.4129 16.2918 16.4129C17.3084 15.8379 18.1418 14.3879 18.1418 13.1963V8.89627C18.1418 8.23793 17.4501 7.82127 16.8834 8.14627L10.8918 11.6213C10.6418 11.7796 10.4751 12.0629 10.4751 12.3713Z" fill="white"/>
</svg>
