<svg width="52" height="52" viewBox="0 0 52 52" fill="none" xmlns="http://www.w3.org/2000/svg">
<path d="M43.7883 16.9433L27.105 26.6067C26.4333 26.9967 25.5883 26.9967 24.895 26.6067L8.21164 16.9433C7.01998 16.25 6.71664 14.625 7.62664 13.6067C8.25498 12.8917 8.96998 12.3067 9.72831 11.895L21.4716 5.395C23.985 3.98666 28.0583 3.98666 30.5716 5.395L42.315 11.895C43.0733 12.3067 43.7883 12.9133 44.4167 13.6067C45.2833 14.625 44.98 16.25 43.7883 16.9433Z" fill="#121212"/>
<path d="M24.7651 30.6367V45.4134C24.7651 47.06 23.0968 48.1434 21.6235 47.4284C17.1601 45.24 9.64179 41.145 9.64179 41.145C6.99845 39.65 4.83179 35.88 4.83179 32.7817V21.6017C4.83179 19.89 6.63012 18.8067 8.10345 19.6517L23.6818 28.6867C24.3318 29.0984 24.7651 29.835 24.7651 30.6367Z" fill="#121212"/>
<path d="M27.2351 30.6367V45.4134C27.2351 47.06 28.9034 48.1434 30.3768 47.4284C34.8401 45.24 42.3584 41.145 42.3584 41.145C45.0018 39.65 47.1684 35.88 47.1684 32.7817V21.6017C47.1684 19.89 45.3701 18.8067 43.8968 19.6517L28.3184 28.6867C27.6684 29.0984 27.2351 29.835 27.2351 30.6367Z" fill="#121212"/>
</svg>
