<svg width="124" height="124" viewBox="0 0 124 124" fill="none" xmlns="http://www.w3.org/2000/svg">
<g filter="url(#filter0_d_798_90407)">
<rect x="50" y="45" width="24" height="24" rx="12" fill="white" shape-rendering="crispEdges"/>
<g filter="url(#filter1_d_798_90407)">
<path d="M62 47C56.49 47 52 51.49 52 57C52 62.51 56.49 67 62 67C67.51 67 72 62.51 72 57C72 51.49 67.51 47 62 47ZM65.36 59.3C65.65 59.59 65.65 60.07 65.36 60.36C65.21 60.51 65.02 60.58 64.83 60.58C64.64 60.58 64.45 60.51 64.3 60.36L62 58.06L59.7 60.36C59.55 60.51 59.36 60.58 59.17 60.58C58.98 60.58 58.79 60.51 58.64 60.36C58.35 60.07 58.35 59.59 58.64 59.3L60.94 57L58.64 54.7C58.35 54.41 58.35 53.93 58.64 53.64C58.93 53.35 59.41 53.35 59.7 53.64L62 55.94L64.3 53.64C64.59 53.35 65.07 53.35 65.36 53.64C65.65 53.93 65.65 54.41 65.36 54.7L63.06 57L65.36 59.3Z" fill="#FCD106"/>
</g>
</g>
<defs>
<filter id="filter0_d_798_90407" x="0" y="0" width="124" height="124" filterUnits="userSpaceOnUse" color-interpolation-filters="sRGB">
<feFlood flood-opacity="0" result="BackgroundImageFix"/>
<feColorMatrix in="SourceAlpha" type="matrix" values="0 0 0 0 0 0 0 0 0 0 0 0 0 0 0 0 0 0 127 0" result="hardAlpha"/>
<feOffset dy="5"/>
<feGaussianBlur stdDeviation="25"/>
<feComposite in2="hardAlpha" operator="out"/>
<feColorMatrix type="matrix" values="0 0 0 0 0.0705882 0 0 0 0 0.0705882 0 0 0 0 0.0705882 0 0 0 0.2 0"/>
<feBlend mode="normal" in2="BackgroundImageFix" result="effect1_dropShadow_798_90407"/>
<feBlend mode="normal" in="SourceGraphic" in2="effect1_dropShadow_798_90407" result="shape"/>
</filter>
<filter id="filter1_d_798_90407" x="2" y="2" width="120" height="120" filterUnits="userSpaceOnUse" color-interpolation-filters="sRGB">
<feFlood flood-opacity="0" result="BackgroundImageFix"/>
<feColorMatrix in="SourceAlpha" type="matrix" values="0 0 0 0 0 0 0 0 0 0 0 0 0 0 0 0 0 0 127 0" result="hardAlpha"/>
<feOffset dy="5"/>
<feGaussianBlur stdDeviation="25"/>
<feComposite in2="hardAlpha" operator="out"/>
<feColorMatrix type="matrix" values="0 0 0 0 0.0705882 0 0 0 0 0.0705882 0 0 0 0 0.0705882 0 0 0 0.2 0"/>
<feBlend mode="normal" in2="BackgroundImageFix" result="effect1_dropShadow_798_90407"/>
<feBlend mode="normal" in="SourceGraphic" in2="effect1_dropShadow_798_90407" result="shape"/>
</filter>
</defs>
</svg>
