<svg width="40" height="48" viewBox="0 0 40 48" fill="none" xmlns="http://www.w3.org/2000/svg">
<path d="M27.0162 24.6573C26.6796 24.3223 25.8461 23.491 25.2809 22.1822C24.9923 21.5143 24.3394 20.0001 24.7959 18.1501C25.1797 16.5954 26.1474 15.6202 26.6159 15.2072L18.8006 19.3577C18.8006 19.3577 18.7991 19.3577 18.7991 19.3584L18.7916 19.3622C17.5023 19.9671 16.5076 21.0953 16.0819 22.473C15.8532 23.2129 15.8555 23.9782 15.8555 23.9782C15.8555 24.1514 15.8645 24.296 15.8727 24.398C16.6643 25.5726 16.8877 26.637 16.9634 27.221C17.0256 27.7059 17.0938 28.2771 16.9072 28.9713C16.5923 30.1421 15.773 30.837 15.4155 31.1054C11.9411 32.9254 1.81852 38.5031 1.63787 38.6935C0.631161 39.6245 0 40.9558 0 42.4348C0 45.2495 2.28177 47.5313 5.09651 47.5313C5.58 47.5313 6.0485 47.4623 6.49151 47.3356C6.76811 47.2682 7.04096 47.1677 7.30407 47.0298L7.34755 47.0066C7.42251 46.9698 7.49672 46.9309 7.56943 46.8904L29.208 35.5385C29.208 35.5385 29.2095 35.5385 29.2095 35.5377L29.217 35.534C29.5079 35.3961 31.2739 34.5235 31.9268 32.4232C31.9815 32.247 32.573 30.2403 31.5318 28.4563C30.7657 27.1437 29.3422 26.3364 29.1781 26.2457C29.0311 26.164 28.7673 26.0276 28.403 25.7862C28.2531 25.6873 27.6271 25.266 27.0155 24.6573H27.0162Z" fill="url(#paint0_linear_798_88536)"/>
<path opacity="0.22" d="M16.8945 28.9211C17.0811 28.2269 17.0129 27.6558 16.9507 27.1708C16.875 26.5868 16.6516 25.5217 15.86 24.3478C15.8518 24.2451 15.8428 24.1004 15.8428 23.9273C15.8428 23.9273 15.8405 23.1619 16.0692 22.4221C16.4949 21.0443 17.4896 19.9162 18.7789 19.3112L18.7864 19.3075C18.7864 19.3075 18.7872 19.3067 18.7879 19.3067C20.0742 18.6149 21.3763 17.923 22.6956 17.2319C24.0606 16.5167 25.4166 15.8166 26.7629 15.1307C26.3266 15.5063 24.8537 16.8691 24.6558 19.0121C24.5231 20.4529 25.0261 21.6013 25.2809 22.1829C25.7629 23.2834 26.4106 24.0472 26.8611 24.5022C23.3365 26.3904 19.8126 28.2794 16.288 30.1677C16.5324 29.8371 16.7595 29.4233 16.8945 28.9218V28.9211Z" fill="url(#paint1_linear_798_88536)"/>
<path d="M39.9999 5.09651C39.9999 6.57546 39.3687 7.90675 38.362 8.83775C38.1814 9.02814 37.9775 9.20055 37.7526 9.35122C37.6259 9.43518 37.5187 9.49439 37.464 9.52363C37.4528 9.52962 37.4438 9.53487 37.4378 9.53787C37.4348 9.53937 37.4318 9.54087 37.4318 9.54087C37.4303 9.54162 37.407 9.54687 37.3643 9.55736L37.3718 9.57235L24.9382 16.0863C24.7748 16.1785 24.6789 16.234 24.6676 16.2415C24.6159 16.2782 18.8013 19.3576 18.8013 19.3576C18.8005 19.3576 18.7998 19.3576 18.7998 19.3583L18.7923 19.3621C17.503 19.967 16.5083 21.0952 16.0825 22.4729C15.8239 23.3095 15.8561 23.9781 15.8561 23.9781C15.8854 24.2315 15.9438 24.4376 15.9933 24.5793C15.6297 24.0373 14.9454 23.1715 13.8165 22.4594C12.9544 21.916 12.1396 21.6551 11.5714 21.5224V21.5209C9.42308 20.922 7.84668 18.9521 7.84668 16.6133C7.84668 14.5714 9.04828 12.8106 10.7829 11.9973L10.7903 11.9936C10.7903 11.9936 10.7911 11.9928 10.7918 11.9928L32.4305 0.640905C32.5032 0.600427 32.5774 0.561448 32.6523 0.524718L32.6958 0.50148C32.9589 0.363555 33.2318 0.263109 33.5084 0.195645C33.9514 0.0689629 34.4199 0 34.9034 0C37.7181 0 39.9999 2.28177 39.9999 5.09651Z" fill="url(#paint2_linear_798_88536)"/>
<defs>
<linearGradient id="paint0_linear_798_88536" x1="30.9598" y1="23.5914" x2="-1.50519" y2="41.587" gradientUnits="userSpaceOnUse">
<stop stop-color="#F49E4C"/>
<stop offset="0.16" stop-color="#F4A04E"/>
<stop offset="0.28" stop-color="#F4A758"/>
<stop offset="0.38" stop-color="#F5B468"/>
<stop offset="0.48" stop-color="#F6C67E"/>
<stop offset="0.57" stop-color="#F7DD9B"/>
<stop offset="0.62" stop-color="#F8EDAF"/>
</linearGradient>
<linearGradient id="paint1_linear_798_88536" x1="23.4594" y1="26.2855" x2="19.5053" y2="18.8495" gradientUnits="userSpaceOnUse">
<stop stop-color="#F49F4D" stop-opacity="0"/>
<stop offset="0.07" stop-color="#F3994A" stop-opacity="0.11"/>
<stop offset="0.23" stop-color="#F38945" stop-opacity="0.38"/>
<stop offset="0.45" stop-color="#F2713C" stop-opacity="0.81"/>
<stop offset="0.54" stop-color="#F26739"/>
<stop offset="0.94" stop-color="#F26739"/>
<stop offset="1" stop-color="#F26739"/>
</linearGradient>
<linearGradient id="paint2_linear_798_88536" x1="40.1288" y1="4.06656" x2="9.23344" y2="20.494" gradientUnits="userSpaceOnUse">
<stop stop-color="#F49E4C"/>
<stop offset="0.16" stop-color="#F4A04E"/>
<stop offset="0.28" stop-color="#F4A758"/>
<stop offset="0.38" stop-color="#F5B468"/>
<stop offset="0.48" stop-color="#F6C67E"/>
<stop offset="0.57" stop-color="#F7DD9B"/>
<stop offset="0.62" stop-color="#F8EDAF"/>
</linearGradient>
</defs>
</svg>
