<svg width="25" height="25" viewBox="0 0 25 25" fill="none" xmlns="http://www.w3.org/2000/svg">
<path d="M15.0299 9.73555L9.96992 14.7955C9.31992 14.1455 8.91992 13.2555 8.91992 12.2655C8.91992 10.2855 10.5199 8.68555 12.4999 8.68555C13.4899 8.68555 14.3799 9.08555 15.0299 9.73555Z" stroke="#121212" stroke-width="1.5" stroke-linecap="round" stroke-linejoin="round"/>
<path d="M18.3198 6.03609C16.5698 4.71609 14.5698 3.99609 12.4998 3.99609C8.96984 3.99609 5.67984 6.07609 3.38984 9.67609C2.48984 11.0861 2.48984 13.4561 3.38984 14.8661C4.17984 16.1061 5.09984 17.1761 6.09984 18.0361" stroke="#121212" stroke-width="1.5" stroke-linecap="round" stroke-linejoin="round"/>
<path d="M8.91992 19.7953C10.0599 20.2753 11.2699 20.5353 12.4999 20.5353C16.0299 20.5353 19.3199 18.4553 21.6099 14.8553C22.5099 13.4453 22.5099 11.0753 21.6099 9.66531C21.2799 9.14531 20.9199 8.65531 20.5499 8.19531" stroke="#121212" stroke-width="1.5" stroke-linecap="round" stroke-linejoin="round"/>
<path d="M16.0099 12.9648C15.7499 14.3748 14.5999 15.5248 13.1899 15.7848" stroke="#121212" stroke-width="1.5" stroke-linecap="round" stroke-linejoin="round"/>
<path d="M9.97 14.7949L2.5 22.2649" stroke="#121212" stroke-width="1.5" stroke-linecap="round" stroke-linejoin="round"/>
<path d="M22.4998 2.26562L15.0298 9.73563" stroke="#121212" stroke-width="1.5" stroke-linecap="round" stroke-linejoin="round"/>
</svg>
