<svg width="20" height="20" viewBox="0 0 20 20" fill="none" xmlns="http://www.w3.org/2000/svg">
<path d="M10.0003 18.9583C5.05866 18.9583 1.04199 14.9417 1.04199 9.99999C1.04199 5.05832 5.05866 1.04166 10.0003 1.04166C14.942 1.04166 18.9587 5.05832 18.9587 9.99999C18.9587 14.9417 14.942 18.9583 10.0003 18.9583ZM10.0003 2.29166C5.75033 2.29166 2.29199 5.74999 2.29199 9.99999C2.29199 14.25 5.75033 17.7083 10.0003 17.7083C14.2503 17.7083 17.7087 14.25 17.7087 9.99999C17.7087 5.74999 14.2503 2.29166 10.0003 2.29166Z" fill="#121212"/>
<path d="M10 11.4583C9.65833 11.4583 9.375 11.175 9.375 10.8333V6.66666C9.375 6.32499 9.65833 6.04166 10 6.04166C10.3417 6.04166 10.625 6.32499 10.625 6.66666V10.8333C10.625 11.175 10.3417 11.4583 10 11.4583Z" fill="#121212"/>
<path d="M10.0003 14.1667C9.89199 14.1667 9.78366 14.1417 9.68366 14.1C9.58366 14.0583 9.49199 14 9.40866 13.925C9.33366 13.8417 9.27533 13.7583 9.23366 13.65C9.19199 13.55 9.16699 13.4417 9.16699 13.3333C9.16699 13.225 9.19199 13.1167 9.23366 13.0167C9.27533 12.9167 9.33366 12.825 9.40866 12.7417C9.49199 12.6667 9.58366 12.6083 9.68366 12.5667C9.88366 12.4833 10.117 12.4833 10.317 12.5667C10.417 12.6083 10.5087 12.6667 10.592 12.7417C10.667 12.825 10.7253 12.9167 10.767 13.0167C10.8087 13.1167 10.8337 13.225 10.8337 13.3333C10.8337 13.4417 10.8087 13.55 10.767 13.65C10.7253 13.7583 10.667 13.8417 10.592 13.925C10.5087 14 10.417 14.0583 10.317 14.1C10.217 14.1417 10.1087 14.1667 10.0003 14.1667Z" fill="#121212"/>
</svg>
