<svg width="52" height="52" viewBox="0 0 52 52" fill="none" xmlns="http://www.w3.org/2000/svg">
<g id="vuesax/bold/key">
<path id="Vector" d="M42.8787 9.14336C36.4654 2.75169 26.0654 2.75169 19.6954 9.14336C15.2104 13.585 13.8671 19.9767 15.6004 25.61L5.41706 35.7934C4.70206 36.53 4.20373 37.9817 4.3554 39.0217L5.0054 43.745C5.24373 45.305 6.6954 46.7784 8.2554 46.995L12.9787 47.645C14.0187 47.7967 15.4704 47.32 16.2071 46.5617L17.9837 44.785C18.4171 44.3734 18.4171 43.68 17.9837 43.2467L13.7804 39.0434C13.1521 38.415 13.1521 37.375 13.7804 36.7467C14.4087 36.1184 15.4487 36.1184 16.0771 36.7467L20.3021 40.9717C20.7137 41.3834 21.4071 41.3834 21.8187 40.9717L26.4121 36.4C32.0237 38.155 38.4154 36.79 42.8787 32.3484C49.2704 25.9567 49.2704 15.535 42.8787 9.14336ZM31.4171 26C28.4271 26 26.0004 23.5734 26.0004 20.5834C26.0004 17.5934 28.4271 15.1667 31.4171 15.1667C34.4071 15.1667 36.8337 17.5934 36.8337 20.5834C36.8337 23.5734 34.4071 26 31.4171 26Z" fill="#121212"/>
</g>
</svg>
