<svg width="20" height="21" viewBox="0 0 20 21" fill="none" xmlns="http://www.w3.org/2000/svg">
<g opacity="1">
<path d="M16.4917 13.0296C14.775 14.7379 12.3167 15.2629 10.1584 14.5879L6.23337 18.5046C5.95004 18.7963 5.39171 18.9713 4.99171 18.9129L3.17504 18.6629C2.57504 18.5796 2.01671 18.0129 1.92504 17.4129L1.67504 15.5963C1.61671 15.1963 1.80837 14.6379 2.08337 14.3546L6.00004 10.4379C5.33337 8.27128 5.85004 5.81295 7.56671 4.10461C10.025 1.64628 14.0167 1.64628 16.4834 4.10461C18.95 6.56295 18.95 10.5713 16.4917 13.0296Z" stroke="white" stroke-width="1.5" stroke-miterlimit="10" stroke-linecap="round" stroke-linejoin="round"/>
<path d="M5.7417 15.163L7.65837 17.0796" stroke="white" stroke-width="1.5" stroke-miterlimit="10" stroke-linecap="round" stroke-linejoin="round"/>
<path d="M12.0833 9.75464C12.7736 9.75464 13.3333 9.195 13.3333 8.50464C13.3333 7.81428 12.7736 7.25464 12.0833 7.25464C11.3929 7.25464 10.8333 7.81428 10.8333 8.50464C10.8333 9.195 11.3929 9.75464 12.0833 9.75464Z" stroke="white" stroke-width="1.5" stroke-linecap="round" stroke-linejoin="round"/>
</g>
</svg>
