<svg width="25" height="24" viewBox="0 0 25 24" fill="none" xmlns="http://www.w3.org/2000/svg">
<path d="M16.08 11.9999C16.08 13.9799 14.48 15.5799 12.5 15.5799C10.52 15.5799 8.92004 13.9799 8.92004 11.9999C8.92004 10.0199 10.52 8.41992 12.5 8.41992C14.48 8.41992 16.08 10.0199 16.08 11.9999Z" stroke="#121212" stroke-width="1.5" stroke-linecap="round" stroke-linejoin="round"/>
<path d="M12.5 20.27C16.03 20.27 19.32 18.19 21.61 14.59C22.51 13.18 22.51 10.81 21.61 9.39997C19.32 5.79997 16.03 3.71997 12.5 3.71997C8.96997 3.71997 5.67997 5.79997 3.38997 9.39997C2.48997 10.81 2.48997 13.18 3.38997 14.59C5.67997 18.19 8.96997 20.27 12.5 20.27Z" stroke="#121212" stroke-width="1.5" stroke-linecap="round" stroke-linejoin="round"/>
</svg>
