<svg width="40" height="40" viewBox="0 0 40 40" fill="none" xmlns="http://www.w3.org/2000/svg">
<path d="M35.1168 8.71683C32.4334 8.45016 29.7501 8.25016 27.0501 8.10016V8.0835L26.6834 5.91683C26.4334 4.3835 26.0668 2.0835 22.1668 2.0835H17.8001C13.9168 2.0835 13.5501 4.2835 13.2834 5.90016L12.9334 8.0335C11.3834 8.1335 9.83343 8.2335 8.28343 8.3835L4.88343 8.71683C4.18343 8.7835 3.68343 9.40016 3.7501 10.0835C3.81677 10.7668 4.41677 11.2668 5.11677 11.2002L8.51677 10.8668C17.2501 10.0002 26.0501 10.3335 34.8834 11.2168C34.9334 11.2168 34.9668 11.2168 35.0168 11.2168C35.6501 11.2168 36.2001 10.7335 36.2668 10.0835C36.3168 9.40016 35.8168 8.7835 35.1168 8.71683Z" fill="#292D32"/>
<path d="M32.0499 13.5665C31.6499 13.1498 31.0999 12.9165 30.5332 12.9165H9.46657C8.89991 12.9165 8.33324 13.1498 7.94991 13.5665C7.56657 13.9832 7.34991 14.5498 7.38324 15.1332L8.41658 32.2332C8.59991 34.7665 8.83324 37.9332 14.6499 37.9332H25.3499C31.1666 37.9332 31.3999 34.7832 31.5832 32.2332L32.6166 15.1498C32.6499 14.5498 32.4332 13.9832 32.0499 13.5665ZM22.7666 29.5832H17.2166C16.5332 29.5832 15.9666 29.0165 15.9666 28.3332C15.9666 27.6498 16.5332 27.0832 17.2166 27.0832H22.7666C23.4499 27.0832 24.0166 27.6498 24.0166 28.3332C24.0166 29.0165 23.4499 29.5832 22.7666 29.5832ZM24.1666 22.9165H15.8332C15.1499 22.9165 14.5832 22.3498 14.5832 21.6665C14.5832 20.9832 15.1499 20.4165 15.8332 20.4165H24.1666C24.8499 20.4165 25.4166 20.9832 25.4166 21.6665C25.4166 22.3498 24.8499 22.9165 24.1666 22.9165Z" fill="#292D32"/>
</svg>
