<svg width="40" height="40" viewBox="0 0 40 40" fill="none" xmlns="http://www.w3.org/2000/svg">
<path d="M20 22.9167C19.3167 22.9167 18.75 22.3501 18.75 21.6667V12.9167C18.75 12.2334 19.3167 11.6667 20 11.6667C20.6833 11.6667 21.25 12.2334 21.25 12.9167V21.6667C21.25 22.3501 20.6833 22.9167 20 22.9167Z" fill="#EE0B0B"/>
<path d="M20 28.75C19.55 28.75 19.1333 28.5834 18.8166 28.2667C18.6666 28.1001 18.55 27.9167 18.45 27.7167C18.3667 27.5167 18.3333 27.3 18.3333 27.0834C18.3333 26.65 18.5166 26.2167 18.8166 25.9C19.4333 25.2833 20.5667 25.2833 21.1834 25.9C21.4834 26.2167 21.6667 26.65 21.6667 27.0834C21.6667 27.3 21.6166 27.5167 21.5333 27.7167C21.45 27.9167 21.3334 28.1001 21.1834 28.2667C20.8667 28.5834 20.45 28.75 20 28.75Z" fill="#EE0B0B"/>
<path d="M20.0003 37.9166C18.8836 37.9166 17.7503 37.6332 16.7503 37.0499L6.85027 31.3332C4.85027 30.1666 3.60025 28.0166 3.60025 25.6999V14.2999C3.60025 11.9833 4.85027 9.83327 6.85027 8.66661L16.7503 2.94995C18.7503 1.78328 21.2336 1.78328 23.2503 2.94995L33.1503 8.66661C35.1503 9.83327 36.4003 11.9833 36.4003 14.2999V25.6999C36.4003 28.0166 35.1503 30.1666 33.1503 31.3332L23.2503 37.0499C22.2503 37.6332 21.117 37.9166 20.0003 37.9166ZM20.0003 4.58325C19.317 4.58325 18.6169 4.7666 18.0003 5.1166L8.10027 10.8333C6.86694 11.5499 6.10025 12.8666 6.10025 14.2999V25.6999C6.10025 27.1166 6.86694 28.4499 8.10027 29.1666L18.0003 34.8832C19.2336 35.5999 20.767 35.5999 21.9836 34.8832L31.8836 29.1666C33.117 28.4499 33.8837 27.1332 33.8837 25.6999V14.2999C33.8837 12.8833 33.117 11.5499 31.8836 10.8333L21.9836 5.1166C21.3836 4.7666 20.6836 4.58325 20.0003 4.58325Z" fill="#EE0B0B"/>
</svg>
